<svg xmlns="http://www.w3.org/2000/svg" viewBox="0 0 512 512" width="512" height="512">
  <defs>
    <linearGradient id="bg" x1="0" y1="0" x2="1" y2="1">
      <stop offset="0" stop-color="#3679C6"/>
      <stop offset="1" stop-color="#0A3F75"/>
    </linearGradient>
  </defs>
  <!-- Rounded square background -->
  <rect x="0" y="0" width="512" height="512" rx="112" fill="url(#bg)"/>
  <!-- Chat bubble -->
  <path d="M128 144h224c22 0 40 18 40 40v128c0 22-18 40-40 40H224l-52 44v-44h-44c-22 0-40-18-40-40V184c0-22 18-40 40-40z"
        fill="#FFFFFF" opacity="0.95"/>
  <!-- Letter A (InterviewAI) -->
  <path d="M192 336 240 208h32l48 128h-32l-10-28h-44l-10 28h-32zm44-56h28l-14-40-14 40z"
        fill="#0A3F75"/>
  <!-- AI dots -->
  <circle cx="352" cy="388" r="12" fill="#F39C12"/>
  <circle cx="384" cy="388" r="12" fill="#F39C12"/>
  <circle cx="416" cy="388" r="12" fill="#F39C12"/>
</svg>
